<svg xmlns="http://www.w3.org/2000/svg" viewBox="0 0 200 50" fill="none">
  <rect width="200" height="50" fill="#009EE3"/>
  <path d="M55 15h-8v20h8c5.5 0 10-4.5 10-10s-4.5-10-10-10zm0 16h-4V19h4c3.3 0 6 2.7 6 6s-2.7 6-6 6z" fill="white"/>
  <path d="M75 15h-8v20h8v-20zm-4 2c1.1 0 2-.9 2-2s-.9-2-2-2-2 .9-2 2 .9 2 2 2z" fill="white"/>
  <path d="M85 22h6v13h4V22h6v-3H85v3z" fill="white"/>
  <path d="M115 15h-4v20h12v-3h-8V15z" fill="white"/>
  <path d="M135 15l-6 20h4l1-4h6l1 4h4l-6-20h-4zm-1 13l2-8 2 8h-4z" fill="white"/>
  <text x="30" y="35" font-family="Arial, sans-serif" font-size="14" font-weight="bold" fill="white">MP</text>
</svg>
